<?xml version="1.0" encoding="UTF-8" standalone="no"?><!DOCTYPE svg PUBLIC "-//W3C//DTD SVG 1.1//EN" "http://www.w3.org/Graphics/SVG/1.1/DTD/svg11.dtd"><svg width="100%" height="100%" viewBox="0 0 260 70" version="1.1" xmlns="http://www.w3.org/2000/svg" xmlns:xlink="http://www.w3.org/1999/xlink" xml:space="preserve" xmlns:serif="http://www.serif.com/" style="fill-rule:evenodd;clip-rule:evenodd;stroke-linejoin:round;stroke-miterlimit:2;"><g><path id="path1307" d="M45.786,70.153l9.885,-29.279l-55.671,-32.03l20.414,23.2l55.574,-32.197l-30.299,6.079l0.097,64.227Z" style="fill:url(#_Linear1);fill-rule:nonzero;"/><g><path d="M64.684,19.353l-0,22.539c-0,2.708 2.209,4.916 4.917,4.916l4.172,0l0,-4.667l-4.172,0c-0.143,0 -0.214,-0.107 -0.214,-0.249l-0,-25.539l-4.703,3Z" style="fill:url(#_Linear2);fill-rule:nonzero;"/><path d="M92.5,26.129l-16.083,-0l-0,4.667l16.083,0c0.143,0 0.25,0.107 0.25,0.25l-0,3.071l-16.333,0l-0,7.774c-0,2.709 2.209,4.917 4.917,4.917l16.083,0l0,-15.762c0,-2.708 -2.209,-4.917 -4.917,-4.917Zm0.25,16.012l-11.416,0c-0.143,0 -0.25,-0.107 -0.25,-0.25l-0,-3.071l11.666,0l-0,3.321Z" style="fill:url(#_Linear3);fill-rule:nonzero;"/><path d="M116.465,26.129l-16.083,-0l-0,20.679l4.667,0l-0,-15.762c-0,-0.143 0.107,-0.25 0.25,-0.25l11.166,0c0.143,0 0.25,0.107 0.25,0.25l-0,15.762l4.667,0l0,-15.762c0,-2.708 -2.209,-4.917 -4.917,-4.917Z" style="fill:url(#_Linear4);fill-rule:nonzero;"/><path d="M140.679,26.129l-16.083,-0l0,4.667l16.083,0c0.143,0 0.25,0.107 0.25,0.25l0,3.071l-16.333,0l0,7.774c0,2.709 2.209,4.917 4.917,4.917l16.083,0l0,-15.762c0,-2.708 -2.208,-4.917 -4.917,-4.917Zm0.25,16.012l-11.416,0c-0.143,0 -0.25,-0.107 -0.25,-0.25l0,-3.071l11.666,0l0,3.321Z" style="fill:url(#_Linear5);fill-rule:nonzero;"/><path d="M163.57,26.129l-7.382,7.988l-3.673,0l-0,-14.764l-4.667,0l-0,27.455l4.667,0l-0,-7.988l3.673,0l7.382,7.988l5.028,0l0,-1.212l-8.273,-9.127l8.273,-9.127l0,-1.213l-5.028,-0Z" style="fill:url(#_Linear6);fill-rule:nonzero;"/><path d="M196.883,26.129l-11.416,-0l-0,-6.776l-4.668,0l0,27.455l4.668,0l-0,-15.762c-0,-0.143 0.107,-0.25 0.249,-0.25l11.167,0c0.142,0 0.249,0.107 0.249,0.25l0,15.762l4.668,0l-0,-15.762c-0,-2.708 -2.245,-4.917 -4.917,-4.917Z" style="fill:url(#_Linear7);fill-rule:nonzero;"/><path d="M204.015,46.808l4.667,0l0,-20.683l-4.667,-0l0,20.683Zm0,-27.455l0,4.703l4.667,0l0,-4.703l-4.667,0Z" style="fill:url(#_Linear8);fill-rule:nonzero;"/><path d="M232.364,26.129l-8.166,15.01l-8.131,-15.01l-5.385,-0l11.376,20.679l4.279,0l11.412,-20.679l-5.385,-0Z" style="fill:url(#_Linear9);fill-rule:nonzero;"/><path d="M255.083,26.129l-11.166,-0c-2.709,-0 -4.917,2.209 -4.917,4.917l-0,10.845c-0,2.709 2.208,4.917 4.917,4.917l16.083,0l0,-4.667l-16.083,0c-0.143,0 -0.25,-0.107 -0.25,-0.25l-0,-3.071l16.333,0l0,-7.774c0,-2.708 -2.209,-4.917 -4.917,-4.917Zm-11.416,7.988l-0,-3.071c-0,-0.143 0.107,-0.25 0.25,-0.25l11.166,0c0.143,0 0.25,0.107 0.25,0.25l-0,3.071l-11.666,0Z" style="fill:url(#_Linear10);fill-rule:nonzero;"/></g></g><defs><linearGradient id="_Linear1" x1="0" y1="0" x2="1" y2="0" gradientUnits="userSpaceOnUse" gradientTransform="matrix(-5.68434e-14,70,-70,-5.68434e-14,130,0)"><stop offset="0" style="stop-color:#fff;stop-opacity:1"/><stop offset="1" style="stop-color:#a6a6a6;stop-opacity:1"/></linearGradient><linearGradient id="_Linear2" x1="0" y1="0" x2="1" y2="0" gradientUnits="userSpaceOnUse" gradientTransform="matrix(-5.78862e-14,70,-70,-5.78862e-14,130,-1.77636e-15)"><stop offset="0" style="stop-color:#fff;stop-opacity:1"/><stop offset="1" style="stop-color:#a6a6a6;stop-opacity:1"/></linearGradient><linearGradient id="_Linear3" x1="0" y1="0" x2="1" y2="0" gradientUnits="userSpaceOnUse" gradientTransform="matrix(-5.78862e-14,70,-70,-5.78862e-14,130,-1.77636e-15)"><stop offset="0" style="stop-color:#fff;stop-opacity:1"/><stop offset="1" style="stop-color:#a6a6a6;stop-opacity:1"/></linearGradient><linearGradient id="_Linear4" x1="0" y1="0" x2="1" y2="0" gradientUnits="userSpaceOnUse" gradientTransform="matrix(-5.78862e-14,70,-70,-5.78862e-14,130,-1.77636e-15)"><stop offset="0" style="stop-color:#fff;stop-opacity:1"/><stop offset="1" style="stop-color:#a6a6a6;stop-opacity:1"/></linearGradient><linearGradient id="_Linear5" x1="0" y1="0" x2="1" y2="0" gradientUnits="userSpaceOnUse" gradientTransform="matrix(-5.78862e-14,70,-70,-5.78862e-14,130,-1.77636e-15)"><stop offset="0" style="stop-color:#fff;stop-opacity:1"/><stop offset="1" style="stop-color:#a6a6a6;stop-opacity:1"/></linearGradient><linearGradient id="_Linear6" x1="0" y1="0" x2="1" y2="0" gradientUnits="userSpaceOnUse" gradientTransform="matrix(-5.78862e-14,70,-70,-5.78862e-14,130,-1.77636e-15)"><stop offset="0" style="stop-color:#fff;stop-opacity:1"/><stop offset="1" style="stop-color:#a6a6a6;stop-opacity:1"/></linearGradient><linearGradient id="_Linear7" x1="0" y1="0" x2="1" y2="0" gradientUnits="userSpaceOnUse" gradientTransform="matrix(-5.78862e-14,70,-70,-5.78862e-14,130,-1.77636e-15)"><stop offset="0" style="stop-color:#fff;stop-opacity:1"/><stop offset="1" style="stop-color:#a6a6a6;stop-opacity:1"/></linearGradient><linearGradient id="_Linear8" x1="0" y1="0" x2="1" y2="0" gradientUnits="userSpaceOnUse" gradientTransform="matrix(-5.78862e-14,70,-70,-5.78862e-14,130,-1.77636e-15)"><stop offset="0" style="stop-color:#fff;stop-opacity:1"/><stop offset="1" style="stop-color:#a6a6a6;stop-opacity:1"/></linearGradient><linearGradient id="_Linear9" x1="0" y1="0" x2="1" y2="0" gradientUnits="userSpaceOnUse" gradientTransform="matrix(-5.78862e-14,70,-70,-5.78862e-14,130,-1.77636e-15)"><stop offset="0" style="stop-color:#fff;stop-opacity:1"/><stop offset="1" style="stop-color:#a6a6a6;stop-opacity:1"/></linearGradient><linearGradient id="_Linear10" x1="0" y1="0" x2="1" y2="0" gradientUnits="userSpaceOnUse" gradientTransform="matrix(-5.78862e-14,70,-70,-5.78862e-14,130,-1.77636e-15)"><stop offset="0" style="stop-color:#fff;stop-opacity:1"/><stop offset="1" style="stop-color:#a6a6a6;stop-opacity:1"/></linearGradient></defs></svg>